<svg viewBox="0 0 24 24" fill="none" xmlns="http://www.w3.org/2000/svg">
<path d="M6.32899 8.25441H17.0877V17.7546C17.0877 18.319 16.6654 18.7765 16.1452 18.7765H15.0676V21.6698C15.0676 22.4045 14.5268 23 13.8592 23C13.1899 23 12.6499 22.4045 12.6499 21.6698V18.7765H10.7678V21.6698C10.7678 22.4045 10.2259 23 9.5583 23C8.89086 23 8.349 22.4045 8.349 21.6698V18.7765H7.27233C6.75201 18.7765 6.32895 18.319 6.32895 17.7546L6.32899 8.25441ZM4.22066 8.17688C3.54626 8.17688 3 8.77802 3 9.52012V14.7699C3 15.5111 3.54626 16.1133 4.22066 16.1133C4.89518 16.1133 5.44132 15.5111 5.44132 14.7699V9.52012C5.44132 8.77802 4.89518 8.17688 4.22066 8.17688ZM17.0878 7.29709H6.32899C6.46178 5.6362 7.45605 4.20693 8.88736 3.37937L7.86444 1.7518C7.7265 1.53232 7.77854 1.23285 7.98149 1.08341C8.1842 0.933973 8.46001 0.990803 8.59864 1.21011L9.71353 2.98527C10.3317 2.75364 11.0026 2.62065 11.7084 2.62065C12.4149 2.62065 13.0859 2.75364 13.704 2.98557L14.8189 1.21076C14.9558 0.990846 15.2325 0.934016 15.4352 1.08345C15.6382 1.23289 15.6902 1.53236 15.5523 1.75185L14.5302 3.37942C15.9615 4.20646 16.955 5.63573 17.0878 7.29709ZM10.0343 5.04031C10.0343 4.68413 9.76812 4.39525 9.43955 4.39525C9.11013 4.39525 8.84398 4.68413 8.84398 5.04031C8.84398 5.39631 9.11101 5.68507 9.43955 5.68507C9.76808 5.68507 10.0343 5.39631 10.0343 5.04031ZM14.6481 5.04031C14.6481 4.68413 14.3811 4.39525 14.0526 4.39525C13.7232 4.39525 13.4578 4.68413 13.4578 5.04031C13.4578 5.39631 13.7232 5.68507 14.0526 5.68507C14.3811 5.68507 14.6481 5.39631 14.6481 5.04031ZM19.1969 8.17503C18.5232 8.17503 17.9754 8.77708 17.9754 9.51922V14.7708C17.9754 15.5129 18.5232 16.1152 19.1969 16.1152C19.8714 16.1152 20.4167 15.513 20.4167 14.7708V9.51922C20.4167 8.77708 19.8714 8.17503 19.1969 8.17503Z" fill="currentColor"/>
</svg>
