<svg width="16" height="18" viewBox="0 0 16 18" fill="none" xmlns="http://www.w3.org/2000/svg">
<path d="M8.00995 5.36765C7.77354 5.36765 7.54681 5.27258 7.37964 5.10337C7.21247 4.93415 7.11856 4.70464 7.11856 4.46534C7.12443 3.61734 7.32474 2.78232 7.70372 2.02604C8.0827 1.26976 8.62999 0.612886 9.30248 0.107173C9.4982 0.00090078 9.72607 -0.0275825 9.94145 0.0273018C10.1568 0.0821861 10.3442 0.216484 10.4669 0.403894C10.5896 0.591303 10.6387 0.818324 10.6047 1.04049C10.5707 1.26266 10.456 1.46398 10.283 1.60501C9.85782 1.94844 9.5133 2.3832 9.27436 2.87787C9.03541 3.37253 8.90801 3.91475 8.90135 4.46534C8.90135 4.70464 8.80744 4.93415 8.64027 5.10337C8.4731 5.27258 8.24637 5.36765 8.00995 5.36765Z" fill="currentColor"/>
<path d="M13.2514 3.02164C12.599 2.75268 11.8965 2.6311 11.1929 2.66538C10.4893 2.69967 9.80153 2.889 9.17769 3.22015C8.81071 3.40127 8.41572 3.51725 8.00995 3.56302C7.60141 3.51686 7.20356 3.40093 6.83331 3.22015C6.20966 2.88841 5.52188 2.69875 4.81817 2.66445C4.11447 2.63016 3.41187 2.75207 2.75962 3.02164C0.611352 3.92395 -0.297875 6.0895 0.0854266 9.41902C0.513298 13.5787 2.45655 18 5.1664 18C5.79982 17.9889 6.41747 17.7982 6.94919 17.4496C7.25971 17.2268 7.62943 17.1042 8.00995 17.0977C8.38066 17.1053 8.74069 17.2247 9.04397 17.4406C9.5765 17.7874 10.1936 17.978 10.8268 17.991C13.501 17.991 15.4799 13.5697 15.9256 9.41C16.3713 5.25035 14.7311 3.65326 13.2514 3.02164Z" fill="currentColor"/>
</svg>
