<svg viewBox="0 0 24 24" fill="none" xmlns="http://www.w3.org/2000/svg">
<path fill-rule="evenodd" clip-rule="evenodd" d="M15.0684 4.51216C15.8919 3.58267 16.4469 2.28808 16.295 1C15.1084 1.044 13.6728 1.73826 12.822 2.66665C12.0579 3.49054 11.391 4.80698 11.5703 6.06977C12.8939 6.16546 14.245 5.44273 15.0684 4.51216ZM18.0367 12.6875C18.0698 16.0171 21.1659 17.1247 21.2002 17.139C21.1751 17.2171 20.7057 18.7173 19.5693 20.2682C18.586 21.608 17.5661 22.9424 15.9592 22.971C14.3809 22.9985 13.8727 22.0976 12.0671 22.0976C10.2626 22.0976 9.69842 22.9423 8.2046 22.9984C6.65367 23.0523 5.47163 21.5488 4.48145 20.2135C2.45542 17.4822 0.907921 12.4951 2.98649 9.12914C4.01892 7.45827 5.86335 6.39856 7.86654 6.37216C9.38892 6.34466 10.8268 7.32822 11.7576 7.32822C12.6884 7.32822 14.4357 6.14573 16.2722 6.31953C17.0408 6.34923 19.1993 6.60873 20.5846 8.5018C20.4727 8.5667 18.0093 9.90454 18.0367 12.6875Z" fill="currentColor"/>
</svg>
