<svg width="18" height="18" viewBox="0 0 18 18" fill="none" xmlns="http://www.w3.org/2000/svg">
<path d="M0.358196 0C0.16037 0 0 0.16037 0 0.358196V1.01091C0 1.44671 0.353288 1.8 0.78909 1.8C1.086 1.8 1.35779 1.96667 1.49241 2.23131L4.6674 8.47268C4.80884 8.75071 4.81243 9.07881 4.67712 9.35986L3.69609 11.3977C3.27058 12.2821 4.41347 13.5 5.39401 13.5H15.282C15.7791 13.5 16.182 13.0971 16.182 12.6C16.182 12.1029 15.7791 11.7 15.282 11.7H6.81044C6.15117 11.7 5.71563 11.0145 5.99567 10.4177C6.14391 10.1018 6.46145 9.9 6.81044 9.9H13.9345C14.4326 9.9 14.6058 9.44343 14.8335 9L17.9502 2.93203C18.1779 2.48861 17.5791 1.8 17.081 1.8H3.90575C3.52934 1.8 3.18482 1.58863 3.01428 1.25307L2.6554 0.54693C2.48486 0.211369 2.14034 0 1.76393 0H0.899002H0.358196ZM5.39401 14.4C4.91715 14.4 4.45982 14.5896 4.12263 14.9272C3.78544 15.2648 3.59601 15.7226 3.59601 16.2C3.59601 16.6774 3.78544 17.1352 4.12263 17.4728C4.45982 17.8104 4.91715 18 5.39401 18C5.87087 18 6.3282 17.8104 6.66539 17.4728C7.00258 17.1352 7.19201 16.6774 7.19201 16.2C7.19201 15.7226 7.00258 15.2648 6.66539 14.9272C6.3282 14.5896 5.87087 14.4 5.39401 14.4ZM14.384 14.4C13.9072 14.4 13.4498 14.5896 13.1126 14.9272C12.7755 15.2648 12.586 15.7226 12.586 16.2C12.586 16.6774 12.7755 17.1352 13.1126 17.4728C13.4498 17.8104 13.9072 18 14.384 18C14.8609 18 15.3182 17.8104 15.6554 17.4728C15.9926 17.1352 16.182 16.6774 16.182 16.2C16.182 15.7226 15.9926 15.2648 15.6554 14.9272C15.3182 14.5896 14.8609 14.4 14.384 14.4Z" fill="currentColor"/>
</svg>
