<svg viewBox="0 0 24 24" fill="none" xmlns="http://www.w3.org/2000/svg">
<path d="M21.248 5.89529C20.4087 4.85743 19.2703 4.0914 18.0045 3.70177C16.8745 1.43977 14.5682 0 12.0141 0C10.6403 0 9.31986 0.413157 8.19547 1.19485C7.2304 1.86577 6.46728 2.76563 5.96703 3.81638C4.7059 4.21084 3.57246 4.97992 2.73865 6.01778C1.7883 7.20072 1.26489 8.68928 1.26489 10.2094C1.26489 11.5899 1.68175 12.9157 2.47038 14.0434C3.1143 14.9641 3.96659 15.6985 4.95893 16.1959V18.7874C4.95893 19.0614 5.18103 19.2835 5.45501 19.2835H18.4526C18.7266 19.2835 18.9487 19.0614 18.9487 18.7874V16.1356C21.2388 15.0288 22.7354 12.6859 22.7354 10.1038C22.7353 8.57594 22.2071 7.08133 21.248 5.89529Z" fill="currentColor"/>
<path d="M18.4523 21.1539H5.45482C5.18083 21.1539 4.95874 21.376 4.95874 21.65V22.359C4.95874 23.2653 5.69341 23.9999 6.59965 23.9999H17.3075C18.2138 23.9999 18.9484 23.2652 18.9484 22.359V21.65C18.9484 21.376 18.7263 21.1539 18.4523 21.1539Z" fill="currentColor"/>
</svg>
