<svg viewBox="0 0 24 24" fill="none" xmlns="http://www.w3.org/2000/svg">
<path d="M20.5 17.1793H3C2.44772 17.1793 2 17.627 2 18.1793V19.7264C2 20.2787 2.44772 20.7264 3 20.7264H20.5C21.0523 20.7264 21.5 20.2787 21.5 19.7264V18.1793C21.5 17.627 21.0523 17.1793 20.5 17.1793Z" stroke="#3A8756" stroke-width="2" stroke-miterlimit="10"/>
<path d="M11.7502 7.42929C14.1021 7.42929 16.3577 8.36358 18.0207 10.0266C19.6837 11.6897 20.618 13.9452 20.618 16.2971V17.2257H2.88232V16.2971C2.88232 13.9452 3.81661 11.6897 5.47966 10.0266C7.1427 8.36358 9.39828 7.42929 11.7502 7.42929Z" stroke="#3A8756" stroke-width="2" stroke-miterlimit="10"/>
<path d="M11.7498 4.76429C12.237 4.76429 12.632 4.36934 12.632 3.88214C12.632 3.39495 12.237 3 11.7498 3C11.2626 3 10.8677 3.39495 10.8677 3.88214C10.8677 4.36934 11.2626 4.76429 11.7498 4.76429Z" stroke="#3A8756" stroke-width="2" stroke-miterlimit="10"/>
<path d="M11.75 7.42928V4.76428" stroke="#3A8756" stroke-width="2" stroke-miterlimit="10"/>
</svg>
