<svg width="24" height="24" viewBox="0 0 20 20" fill="none" xmlns="http://www.w3.org/2000/svg">
<rect x="0.5" y="0.5" width="19" height="19" rx="9.5" fill="white" stroke="currentColor"/>
<path d="M12.828 5.87416H10.9737L10.6956 3H9.30477L9.02665 5.87416H7.17236V7.54314H12.828V5.87416Z" fill="currentColor"/>
<path d="M13.5916 15.552L12.828 8.09942H7.17232L6.40872 15.552C6.37077 15.9218 6.49135 16.2905 6.74051 16.5666C6.98964 16.8425 7.3441 17 7.71589 17H12.2843C12.6561 17 13.0108 16.8425 13.2598 16.5666C13.5089 16.2905 13.6295 15.9218 13.5916 15.552ZM12.6405 16.0073C12.5497 16.1079 12.4199 16.1656 12.2844 16.1656H7.71592C7.58043 16.1656 7.45066 16.1079 7.36004 16.0075C7.26923 15.9069 7.22496 15.7718 7.23882 15.6371L7.92567 8.93381H12.0746L12.7614 15.6369C12.7753 15.7718 12.7313 15.9069 12.6405 16.0073Z" fill="currentColor"/>
<path d="M8.5174 11.3443L8.10889 15.3312H11.8913L11.4828 11.3443H8.5174Z" fill="currentColor"/>
</svg>
