<svg width="24" height="24" viewBox="0 0 20 20" fill="none" xmlns="http://www.w3.org/2000/svg">
<rect x="0.5" y="0.5" width="19" height="19" rx="9.5" fill="white" stroke="currentColor"/>
<path d="M12.2867 7.033C12.2056 6.84517 12.151 6.42573 12.1182 6.09909C12.3509 5.87706 12.4937 5.5642 12.4937 5.21889C12.4937 4.54675 11.9469 4 11.2748 4H8.7256C8.05346 4 7.50671 4.54675 7.50671 5.21889C7.50671 5.5642 7.64954 5.87706 7.88218 6.09909C7.84941 6.42573 7.7948 6.84517 7.71371 7.033C7.34799 7.87902 7.04541 8.68511 7.04541 9.98523V14.3794C7.04541 15.2729 7.77249 16 8.66595 16H11.3343C12.2279 16 12.955 15.2729 12.955 14.3794V9.98526C12.955 8.68511 12.6524 7.87902 12.2867 7.033ZM8.40921 7.33349C8.59864 6.89521 8.65287 5.97838 8.67973 5.67545C8.4469 5.65227 8.2643 5.458 8.2643 5.21889C8.2643 4.96408 8.47062 4.75759 8.7256 4.75759H11.2748C11.5296 4.75759 11.7361 4.96408 11.7361 5.21889C11.7361 5.458 11.5535 5.6523 11.3205 5.67545C11.3476 5.97838 11.4018 6.89521 11.5912 7.33349C11.8577 7.95018 12.068 8.50251 12.1543 9.22766H7.84589C7.93243 8.50251 8.14257 7.95018 8.40921 7.33349ZM12.1972 14.3795C12.1972 14.8561 11.8109 15.2424 11.3343 15.2424H8.66595C8.18949 15.2424 7.80303 14.8561 7.80303 14.3795C7.80303 14.3795 7.80303 12.2771 7.80303 10.9703H12.1972C12.1972 12.2771 12.1972 14.3795 12.1972 14.3795Z" fill="currentColor"/>
</svg>
