<svg width="24" height="24" viewBox="0 0 20 20" fill="none" xmlns="http://www.w3.org/2000/svg">
<rect x="0.5" y="0.5" width="19" height="19" rx="9.5" fill="white" stroke="currentColor"/>
<path d="M15.9233 7.74726C15.5739 7.53768 14.1816 8.8191 13.7798 9.35495C12.44 8.551 11.2344 8.01517 11.2344 8.01517C11.2344 8.01517 11.7703 5.67084 11.0334 5.80459C10.3622 5.92675 9.11938 6.80205 8.08614 7.61331C6.34452 8.08225 4.23822 9.27545 4 10.4266C4.66977 12.6372 8.48802 13.7088 10.7655 14.1778C11.8865 14.4087 11.2344 12.8382 11.2344 12.8382C11.2344 12.8382 12.44 12.3022 13.7798 11.4984C14.1817 12.0343 15.5739 13.3157 15.9233 13.1061C16.2583 12.9051 15.3875 10.4266 15.3875 10.4266C15.3875 10.4266 16.2583 7.9483 15.9233 7.74726ZM6.38336 10.5453C6.07804 10.5453 5.83066 10.2979 5.83066 9.99257C5.83066 9.68746 6.07804 9.44008 6.38336 9.44008C6.68847 9.44008 6.93585 9.68746 6.93585 9.99257C6.93585 10.2979 6.68847 10.5453 6.38336 10.5453Z" fill="currentColor"/>
</svg>
