<svg width="24" height="24" viewBox="0 0 20 20" fill="none" xmlns="http://www.w3.org/2000/svg">
<rect x="0.5" y="0.5" width="19" height="19" rx="9.5" fill="white" stroke="currentColor"/>
<path d="M10.0062 7.28023C9.85846 7.28023 9.71676 7.22213 9.61228 7.11872C9.50779 7.01531 9.4491 6.87506 9.4491 6.72882C9.45277 6.2106 9.57796 5.7003 9.81483 5.23813C10.0517 4.77596 10.3937 4.37454 10.8141 4.06549C10.9364 4.00055 11.0788 3.98314 11.2134 4.01668C11.348 4.05022 11.4651 4.1323 11.5418 4.24682C11.6185 4.36135 11.6492 4.50009 11.628 4.63586C11.6067 4.77163 11.535 4.89465 11.4269 4.98084C11.1611 5.19072 10.9458 5.4564 10.7965 5.7587C10.6471 6.06099 10.5675 6.39234 10.5633 6.72882C10.5633 6.87506 10.5046 7.01531 10.4002 7.11872C10.2957 7.22213 10.154 7.28023 10.0062 7.28023Z" fill="currentColor"/>
<path d="M13.2821 5.84656C12.8744 5.68219 12.4353 5.60789 11.9955 5.62884C11.5558 5.6498 11.126 5.7655 10.7361 5.96787C10.5067 6.07855 10.2598 6.14943 10.0062 6.1774C9.75088 6.1492 9.50223 6.07835 9.27082 5.96787C8.88104 5.76514 8.45117 5.64923 8.01136 5.62828C7.57154 5.60732 7.13242 5.68182 6.72476 5.84656C5.38209 6.39797 4.81383 7.72136 5.05339 9.75607C5.32081 12.2981 6.53534 15 8.229 15C8.62488 14.9932 9.01092 14.8767 9.34324 14.6636C9.53732 14.5275 9.76839 14.4526 10.0062 14.4486C10.2379 14.4532 10.4629 14.5262 10.6525 14.6581C10.9853 14.8701 11.371 14.9865 11.7667 14.9945C13.4381 14.9945 14.6749 12.2926 14.9535 9.75056C15.232 7.20854 14.2069 6.23255 13.2821 5.84656Z" fill="currentColor"/>
</svg>
