<svg width="24" height="24" viewBox="0 0 20 20" fill="none" xmlns="http://www.w3.org/2000/svg">
<rect x="0.5" y="0.5" width="19" height="19" rx="9.5" fill="white" stroke="currentColor"/>
<g clip-path="url(#clip0_12_651)">
<path d="M10.5552 3.87822L11.6689 4.99192C12.1065 5.4295 12.3523 6.02299 12.3523 6.64183C12.3523 7.26067 12.1065 7.85416 11.6689 8.29175L11.0914 8.86922L9.9777 7.75553C9.54012 7.31794 9.29429 6.72445 9.29429 6.10561C9.29429 5.48677 9.54012 4.89328 9.97771 4.45569L10.5552 3.87822Z" stroke="currentColor" stroke-miterlimit="10"/>
<path d="M12.2251 9.99702L11.1114 8.88333L11.6682 8.32648C12.1058 7.8889 12.6993 7.64306 13.3182 7.64306C13.937 7.64306 14.5305 7.8889 14.9681 8.32648L16.0818 9.44017L15.5455 9.9764C15.108 10.414 14.5145 10.6598 13.8956 10.6598C13.2768 10.6598 12.6833 10.414 12.2457 9.9764L12.2251 9.99702Z" stroke="currentColor" stroke-miterlimit="10"/>
<path d="M8.32959 6.10243L9.44328 7.21613C9.88087 7.65371 10.1267 8.2472 10.1267 8.86604C10.1267 9.48488 9.88087 10.0784 9.44328 10.516L8.88644 11.0728L7.77274 9.95911C7.33516 9.52153 7.08933 8.92803 7.08933 8.3092C7.08933 7.69036 7.33516 7.09686 7.77274 6.65928L8.32959 6.10243Z" stroke="currentColor" stroke-miterlimit="10"/>
<path d="M10.0041 12.2254L8.89041 11.1117L9.43076 10.5713C9.86834 10.1337 10.4618 9.8879 11.0807 9.8879C11.6995 9.8879 12.293 10.1337 12.7306 10.5713L13.869 11.7098L13.3493 12.2295C13.1316 12.4528 12.8713 12.6301 12.5839 12.7511C12.2965 12.8721 11.9877 12.9342 11.6758 12.9338C11.364 12.9335 11.0554 12.8706 10.7682 12.7489C10.4811 12.6272 10.2213 12.4492 10.0041 12.2254Z" stroke="currentColor" stroke-miterlimit="10"/>
<path d="M6.10547 8.33076L7.21916 9.44446C7.43583 9.66113 7.6077 9.91835 7.72496 10.2014C7.84223 10.4845 7.90258 10.788 7.90258 11.0944C7.90258 11.4008 7.84223 11.7042 7.72496 11.9873C7.6077 12.2704 7.43583 12.5276 7.21916 12.7443L6.66231 13.3011L5.56925 12.2081C5.13166 11.7705 4.88583 11.177 4.88583 10.5582C4.88583 9.93931 5.13166 9.34582 5.56925 8.90824L6.12609 8.35139L6.10547 8.33076Z" stroke="currentColor" stroke-miterlimit="10"/>
<path d="M7.77282 14.4578L6.65913 13.3441L7.21597 12.7873C7.65356 12.3497 8.24705 12.1039 8.86589 12.1039C9.48473 12.1039 10.0782 12.3497 10.5158 12.7873L11.6501 13.9216L11.1139 14.4578C10.8965 14.6807 10.6367 14.8579 10.3498 14.9788C10.0629 15.0998 9.75472 15.1621 9.44336 15.1621C9.132 15.1621 8.82379 15.0998 8.53689 14.9788C8.24999 14.8579 7.9902 14.6807 7.77282 14.4578Z" stroke="currentColor" stroke-miterlimit="10"/>
<path d="M16.125 3.875V4.855C16.125 5.47384 15.8792 6.06733 15.4416 6.50492C15.004 6.9425 14.4105 7.18833 13.7917 7.18833H12.7825V6.2375C12.7825 5.61866 13.0283 5.02517 13.4659 4.58758C13.9035 4.15 14.497 3.90417 15.1158 3.90417H16.125V3.875Z" stroke="currentColor" stroke-miterlimit="10"/>
<path d="M3.875 16.125L6.6575 13.3425" stroke="currentColor" stroke-miterlimit="10"/>
</g>
<defs>
<clipPath id="clip0_12_651">
<rect width="14" height="14" fill="white" transform="translate(3 3)"/>
</clipPath>
</defs>
</svg>
