<svg width="24" height="24" viewBox="0 0 20 20" fill="none" xmlns="http://www.w3.org/2000/svg">
<rect x="0.5" y="0.5" width="19" height="19" rx="9.5" fill="white" stroke="currentColor"/>
<path d="M6.94404 6.86042C7.3102 6.86042 12.6891 6.86042 13.0552 6.86042C13.4624 6.86042 13.8068 6.48748 13.4624 5.84022C13.0999 5.1592 11.7693 4.57902 10.4478 4.45999V4.07231C10.6607 4.07231 10.8228 4.07231 10.8541 4.07231C10.9679 4.07231 11.0643 3.90727 10.9679 3.6207C10.8562 3.28837 10.4145 3.00995 10.0105 3.00041V3C10.0069 3 10.0033 3 9.99965 3.00022C9.99601 3 9.9924 3 9.98874 3V3.00044C9.58476 3.00995 9.14335 3.28837 9.03135 3.62073C8.93524 3.90729 9.03135 4.07234 9.14516 4.07234C9.17644 4.07234 9.33875 4.07234 9.55165 4.07234V4.46002C8.22993 4.57905 6.89936 5.15923 6.53711 5.84025C6.19274 6.48748 6.53711 6.86042 6.94404 6.86042Z" fill="currentColor"/>
<path d="M6.54043 12.4035H13.4594C14.1688 11.8968 13.7296 11.4127 13.5641 11.1566C11.3236 9.38277 13.0704 7.83935 13.0704 7.83935V7.13448H6.92947V7.83935C6.92947 7.83935 8.67606 9.38277 6.43548 11.1566C6.27022 11.4127 5.83086 11.8968 6.54043 12.4035Z" fill="currentColor"/>
<path d="M13.3898 13.8417C13.6439 13.783 13.8332 13.5561 13.8332 13.2845C13.8332 12.9682 13.577 12.7118 13.2608 12.7118H6.73902C6.42276 12.7118 6.16636 12.9682 6.16636 13.2845C6.16636 13.5561 6.35588 13.783 6.60982 13.8417C6.66716 14.3631 6.07568 14.0698 6.07568 14.4346V16.2473C6.07568 16.6629 6.41259 17 6.82835 17H13.1714C13.587 17 13.9241 16.6629 13.9241 16.2473V14.4346C13.9241 14.0698 13.3327 14.3631 13.3898 13.8417Z" fill="currentColor"/>
</svg>
