<svg width="18" height="18" viewBox="0 0 18 18" fill="none" xmlns="http://www.w3.org/2000/svg">
<path d="M5.71654 17.6187C6.26882 17.6187 6.71654 17.1709 6.71654 16.6187V12.2657C6.71654 11.7134 7.16425 11.2657 7.71654 11.2657H9.71654C10.2688 11.2657 10.7165 11.7134 10.7165 12.2657V16.6187C10.7165 17.1709 11.1643 17.6187 11.7165 17.6187H14.7165C15.2688 17.6187 15.7165 17.1709 15.7165 16.6187V10.0055C15.7165 9.53194 16.1004 9.14807 16.5739 9.14807C17.3478 9.14807 17.7257 8.20382 17.1654 7.66996L9.40641 0.276056C9.02014 -0.0920305 8.41293 -0.0920303 8.02667 0.276056L0.267639 7.66996C-0.292589 8.20382 0.085269 9.14807 0.859134 9.14807C1.33266 9.14807 1.71654 9.53194 1.71654 10.0055V16.6187C1.71654 17.1709 2.16425 17.6187 2.71654 17.6187H5.71654Z" fill="currentColor"/>
</svg>
