<svg width="16" height="16" viewBox="0 0 16 16" fill="none" xmlns="http://www.w3.org/2000/svg">
<circle cx="8" cy="8" r="8" fill="#D99145"/>
<path d="M8.00498 6.18382C7.88677 6.18382 7.77341 6.13629 7.68982 6.05168C7.60624 5.96707 7.55928 5.85232 7.55928 5.73267C7.56221 5.30867 7.66237 4.89116 7.85186 4.51302C8.04135 4.13488 8.315 3.80644 8.65124 3.55359C8.7491 3.50045 8.86304 3.48621 8.97073 3.51365C9.07842 3.54109 9.17211 3.60824 9.23345 3.70195C9.29479 3.79565 9.31937 3.90916 9.30236 4.02025C9.28536 4.13133 9.22799 4.23199 9.14151 4.3025C8.92891 4.47422 8.75665 4.6916 8.63718 4.93893C8.51771 5.18626 8.454 5.45737 8.45068 5.73267C8.45068 5.85232 8.40372 5.96707 8.32013 6.05168C8.23655 6.13629 8.12318 6.18382 8.00498 6.18382Z" fill="white"/>
<path d="M10.6257 5.01082C10.2995 4.87634 9.94824 4.81555 9.59643 4.83269C9.24463 4.84983 8.90077 4.9445 8.58884 5.11007C8.40535 5.20064 8.20786 5.25862 8.00498 5.28151C7.80071 5.25843 7.60178 5.20046 7.41665 5.11007C7.10483 4.9442 6.76094 4.84937 6.40909 4.83223C6.05723 4.81508 5.70593 4.87604 5.37981 5.01082C4.30568 5.46197 3.85106 6.54475 4.04271 8.20951C4.25665 10.2893 5.22827 12.5 6.5832 12.5C6.89991 12.4944 7.20873 12.3991 7.4746 12.2248C7.62985 12.1134 7.81471 12.0521 8.00498 12.0488C8.19033 12.0526 8.37034 12.1123 8.52199 12.2203C8.78825 12.3937 9.09682 12.489 9.41339 12.4955C10.7505 12.4955 11.7399 10.2848 11.9628 8.205C12.1856 6.12517 11.3655 5.32663 10.6257 5.01082Z" fill="white"/>
</svg>
