<svg width="24" height="24" viewBox="0 0 20 20" fill="none" xmlns="http://www.w3.org/2000/svg">
<rect x="0.5" y="0.5" width="19" height="19" rx="9.5" fill="white" stroke="currentColor"/>
<g clip-path="url(#clip0_238_882)">
<path fill-rule="evenodd" clip-rule="evenodd" d="M9.04569 13.8818C9.04569 13.5404 9.34361 13.2638 9.71125 13.2638C10.0789 13.2638 10.3765 13.5407 10.3765 13.8818C10.3765 14.2232 10.0786 14.4998 9.71125 14.4998C9.34389 14.4998 9.04569 14.2232 9.04569 13.8818ZM13.8631 10.9347C13.9815 11.3164 13.7441 11.7149 13.333 11.8252C12.922 11.9352 12.4922 11.7149 12.374 11.333C12.2556 10.9513 12.493 10.5525 12.9041 10.4422C13.3151 10.3325 13.7446 10.5527 13.8631 10.9347ZM14.2176 8.86274C14.5709 8.7681 14.9397 8.95764 15.0413 9.28524C15.1432 9.61336 14.9394 9.95578 14.586 10.0504C14.233 10.1448 13.8639 9.95552 13.7623 9.62766C13.6604 9.2998 13.8642 8.95712 14.2176 8.86274ZM10.67 12.6002C10.67 12.203 11.0169 11.8808 11.4447 11.8808C11.8728 11.8808 12.2198 12.203 12.2198 12.6002C12.2198 12.9978 11.8728 13.3199 11.4447 13.3199C11.0169 13.3197 10.67 12.9978 10.67 12.6002ZM16.3134 5.36466C16.2651 5.12185 15.9585 5.04938 15.7991 5.23888C12.8081 8.79657 9.61535 11.963 6.03379 15.0204C5.89116 15.1421 5.89317 15.3647 6.05153 15.4651C8.4156 16.9643 12.5493 14.9999 14.1565 13.4062C16.5341 11.0487 16.9045 8.33368 16.3134 5.36466ZM10.8028 3.52316C10.6857 3.30587 10.3712 3.32134 10.27 3.54648C8.38771 7.7337 6.24256 11.5126 3.63943 15.3662C3.53513 15.5206 3.59412 15.7337 3.76748 15.802C4.20817 15.9756 4.53922 16.0331 4.98824 15.9807C5.23341 15.9521 5.30487 15.6447 5.1137 15.4885C4.96935 15.3706 4.9674 15.1507 5.10935 15.0299C7.50865 12.9884 9.79031 10.9322 11.9589 8.6655C12.0057 8.61666 12.0347 8.5529 12.0401 8.48554C12.1945 6.56723 11.6715 5.13501 10.8028 3.52316Z" fill="currentColor"/>
</g>
<defs>
<clipPath id="clip0_238_882">
<rect width="14" height="13" fill="white" transform="translate(3 3)"/>
</clipPath>
</defs>
</svg>
