<svg viewBox="0 0 206 219" fill="none" xmlns="http://www.w3.org/2000/svg">
<path d="M50.4975 133.5V199.5C50.4975 206.127 55.8701 211.5 62.4975 211.5H143.497C150.125 211.5 155.497 206.127 155.497 199.5V133.5M46.0391 127.875C-11.749 112.432 -2.46416 28.6157 59.9165 33.9379C60.3219 33.9725 60.7307 33.7571 60.9232 33.3986C72.9815 10.9388 94.1795 7.49997 102.605 7.5C111.03 7.49997 132.123 10.9388 144.179 33.3986C144.372 33.7571 144.78 33.9725 145.186 33.9379C207.567 28.6157 216.851 112.432 159.063 127.875M50.4975 181L50.1169 84.0954C50.1131 83.1267 51.3475 82.688 51.9322 83.4604C59.5266 93.4933 88.8378 131 102.605 131C116.386 131 145.744 93.4158 153.301 83.4294C153.883 82.6601 155.113 83.09 155.117 84.0548L155.497 181H50.4975Z" stroke="currentColor" stroke-width="12" stroke-linecap="round"/>
</svg>
