<svg width="24" height="24" viewBox="0 0 20 20" fill="none" xmlns="http://www.w3.org/2000/svg">
<rect x="0.5" y="0.5" width="19" height="19" rx="9.5" fill="white" stroke="currentColor"/>
<path d="M15.9911 9.29971C15.919 8.63573 15.595 8.02312 14.9981 7.61826C13.0356 6.28661 11.4937 7.40802 10.232 7.12771C8.97042 6.84721 7.75912 6.08868 7.0079 5.86614C5.39365 5.38757 3.83097 6.69438 4.01482 8.35024V9.22331C3.96497 9.66342 4.0383 10.1437 4.27432 10.6323C5.41924 13.0044 9.93086 14.4525 12.7551 14.2068C14.7644 14.032 15.9022 12.5785 16 11.185C16 11.185 15.9911 9.34727 15.9911 9.29971ZM15.3016 10.1593C15.0707 11.0451 14.2664 12.0402 12.7006 12.1765C12.5126 12.1931 12.3123 12.2012 12.105 12.2012C10.7599 12.2012 9.14137 11.8548 7.77623 11.2746C6.30387 10.6489 5.26195 9.82549 4.84228 8.9561C4.54483 8.34004 4.56004 7.71588 4.88482 7.1984C5.19497 6.70401 5.74788 6.39695 6.32754 6.39695C6.49446 6.39695 6.66309 6.4218 6.82868 6.47069C7.07838 6.54501 7.43414 6.7102 7.8109 6.88499C8.45679 7.18495 9.26055 7.55805 10.0951 7.74363C10.283 7.7852 10.4801 7.80562 10.6973 7.80562C11.0529 7.80562 11.4145 7.74942 11.7641 7.69532C12.1243 7.63947 12.4968 7.58172 12.8735 7.58172C13.5198 7.58172 14.0822 7.75924 14.6439 8.14042C15.3853 8.64344 15.4698 9.51304 15.3016 10.1593Z" fill="currentColor"/>
<path d="M9.51844 8.26244C8.77319 8.04777 8.08591 7.72935 7.51568 7.46465C7.17839 7.30794 6.82994 7.14604 6.62951 7.08674C6.52844 7.05691 6.42698 7.04169 6.32744 7.04169C5.98669 7.04169 5.66154 7.22305 5.47826 7.51471C5.2324 7.90668 5.33983 8.31848 5.47362 8.59532C5.81419 9.30126 6.75347 10.0223 8.0501 10.5734C8.61975 10.7725 9.53093 10.7725 9.53093 10.1416C9.53095 9.51515 9.11048 8.98494 9.51844 8.26244Z" fill="currentColor"/>
<path d="M14.2506 8.66402C13.8046 8.36139 13.3799 8.22644 12.8738 8.22644C12.5515 8.22644 12.2219 8.27725 11.8717 8.33193C11.5135 8.38739 11.1072 8.45034 10.6976 8.45034C10.4852 8.45034 10.2867 8.4336 10.0954 8.40089C9.95173 8.75472 9.96002 9.46781 10.1621 10.1416C10.3724 10.8424 10.3724 11.0878 10.9682 11.3333C11.3536 11.4382 11.7496 11.4442 12.1052 11.4442C12.2918 11.4442 12.4716 11.4369 12.6401 11.4223C14.1533 11.2906 14.5408 10.2441 14.6236 9.92639C14.6759 9.72501 14.8038 9.03944 14.2506 8.66402ZM12.2298 10.2117C11.494 10.2818 11.3536 9.40582 12.0546 9.26528C12.6882 9.13858 13.2855 10.1112 12.2298 10.2117Z" fill="currentColor"/>
</svg>
