<svg viewBox="0 0 24 24" fill="none" xmlns="http://www.w3.org/2000/svg">
<path fill-rule="evenodd" clip-rule="evenodd" d="M11.1387 2.00799C11.0764 2.01531 10.8641 2.03726 10.6676 2.05678C8.38177 2.28485 6.07884 3.46304 4.52159 5.20226C2.79959 7.12565 1.92455 9.51251 2.0051 12.0555C2.14545 16.4474 5.16597 20.1662 9.45085 21.2248C11.9637 21.8456 14.7267 21.4029 16.9161 20.0296C19.1007 18.6575 20.6298 16.5438 21.2413 14.0484C21.4512 13.1934 21.5 12.758 21.5 11.7469C21.5 10.7358 21.4512 10.3004 21.2413 9.44543C20.2747 5.49986 17.0235 2.59708 12.9778 2.06776C12.6312 2.02263 11.3706 1.98238 11.1387 2.00799ZM12.7984 3.89601C13.6466 4.00578 14.4399 4.24361 15.2234 4.62415C16.0753 5.03883 16.6635 5.46083 17.3555 6.15237C18.0474 6.84391 18.4697 7.43178 18.8847 8.2831C19.4277 9.39908 19.673 10.476 19.673 11.7469C19.673 13.0324 19.4265 14.1033 18.8676 15.2436C18.6577 15.6717 18.2342 16.3584 18.0365 16.5914L17.9693 16.6706L12.4006 11.1042L6.83062 5.53888L6.90995 5.4718C7.14304 5.27422 7.83014 4.851 8.2585 4.64122C9.68883 3.94114 11.2143 3.69111 12.7984 3.89601ZM11.1228 12.3982L16.6879 17.961L16.6061 18.0257C16.3145 18.2574 15.6713 18.6526 15.2564 18.855C14.4899 19.2295 13.6991 19.4746 12.8314 19.6063C12.3139 19.6856 11.2009 19.6856 10.6835 19.6063C8.3061 19.2453 6.29974 17.9488 5.03661 15.9559C4.77544 15.5449 4.43372 14.8277 4.26287 14.3314C3.78568 12.9531 3.70636 11.4274 4.03221 9.96012C4.25066 8.98318 4.76202 7.86842 5.36978 7.04759C5.45521 6.93173 5.5321 6.83659 5.54186 6.83659C5.5504 6.83659 8.06202 9.33932 11.1228 12.3982Z" fill="currentColor"/>
</svg>
