<svg width="24" height="24" viewBox="0 0 20 20" fill="none" xmlns="http://www.w3.org/2000/svg">
<rect x="0.5" y="0.5" width="19" height="19" rx="9.5" fill="white" stroke="currentColor"/>
<g clip-path="url(#clip0_238_946)">
<path d="M16.1548 4.88475C15.0547 3.63399 13.5947 3.29184 11.9329 3.89564L12.1951 4.61741L11.9328 3.89564H11.9326C11.7832 3.95017 11.6302 4.01259 11.4774 4.08232C10.0601 4.72747 9.41917 5.96994 8.95116 6.87699C8.81192 7.14714 8.6226 7.51443 8.51924 7.61171C8.22767 7.74731 7.95019 7.85513 7.65679 7.96904C6.89622 8.26375 6.1099 8.5688 5.09402 9.35625C3.6958 10.44 3.01095 11.8051 3.00006 13.5295C2.99419 14.4671 3.38922 15.2694 4.11263 15.7893C4.83324 16.3071 6.17749 16.7577 8.48872 15.9638C8.52367 15.9516 8.55812 15.9394 8.59241 15.9271C10.6083 15.1948 11.4974 13.6829 11.975 12.8706C12.0717 12.7064 12.1812 12.5201 12.2333 12.461C12.3944 12.2783 12.8006 12.0617 13.3144 11.7872C13.813 11.5211 14.4334 11.1899 15.1799 10.7116C16.1638 10.0814 16.7951 9.09697 16.9583 7.93962C17.1184 6.80075 16.8105 5.63 16.1548 4.88475ZM14.7656 10.0648C13.1409 11.1056 12.1122 11.4372 11.6574 11.9528C11.2086 12.4616 10.5954 14.3824 8.33013 15.2052C8.30013 15.2163 8.26992 15.2268 8.23921 15.2372C5.2813 16.2537 3.75812 15.114 3.76804 13.5344C3.77687 12.1357 4.28935 10.952 5.56458 9.96347C6.88132 8.94273 7.77264 8.81098 8.86956 8.29575C9.60796 7.94916 9.89233 5.64786 11.7958 4.78136C11.9326 4.71894 12.0655 4.66441 12.1948 4.61757C13.8645 4.01093 14.9156 4.63866 15.578 5.39206C16.4731 6.40936 16.6597 8.85151 14.7656 10.0648Z" fill="currentColor"/>
<path d="M14.1257 6.53987C14.0604 6.65643 14.1018 6.80357 14.2179 6.86884C14.3342 6.93408 14.4812 6.89274 14.5466 6.77642C14.6166 6.65217 14.6709 6.54312 14.712 6.45434C14.753 6.36577 14.7816 6.29684 14.7978 6.25691C14.8488 6.13368 14.7899 5.99261 14.6666 5.94194C14.5434 5.89086 14.4023 5.94965 14.3517 6.07308C14.3352 6.1124 14.3107 6.17201 14.274 6.25103C14.2375 6.33011 14.1889 6.42781 14.1257 6.53987Z" fill="currentColor"/>
<path d="M8.54196 11.9678C8.62952 12.0684 8.78193 12.0787 8.88256 11.9909C9.17617 11.7352 9.46771 11.4741 9.7525 11.2167C9.85143 11.1273 9.85911 10.9747 9.76972 10.8758C9.68026 10.7766 9.52773 10.7692 9.42872 10.8585C9.14506 11.1147 8.85551 11.3737 8.56507 11.6273C8.46463 11.7149 8.4543 11.8675 8.54196 11.9678Z" fill="currentColor"/>
<path d="M11.3369 9.15029C11.0656 9.38034 10.7711 9.64243 10.4605 9.92254C10.3615 10.0117 10.3537 10.1645 10.4431 10.2635C10.5324 10.3624 10.685 10.3703 10.7839 10.2809C11.0929 10.002 11.3841 9.74335 11.6491 9.51859C11.7508 9.43223 11.7633 9.28004 11.6772 9.17827C11.5909 9.07671 11.4386 9.06413 11.3369 9.15029Z" fill="currentColor"/>
<path d="M7.50603 12.5138C7.19177 12.7634 6.88328 12.9936 6.58837 13.1928C6.47782 13.2677 6.44865 13.4174 6.5233 13.5279C6.59789 13.6385 6.74798 13.6675 6.85856 13.593C7.16716 13.3846 7.48468 13.1473 7.80613 12.8919C7.91061 12.8094 7.92803 12.6574 7.84504 12.5528C7.76213 12.4484 7.61018 12.431 7.50603 12.5138Z" fill="currentColor"/>
<path d="M13.327 7.59528C13.0941 7.83243 12.8132 8.07503 12.4743 8.30671C12.3643 8.38191 12.336 8.5323 12.4114 8.64216C12.4865 8.75222 12.6369 8.78041 12.7467 8.70541C13.1124 8.45511 13.418 8.19178 13.6714 7.93339C13.765 7.83853 13.7636 7.68571 13.6683 7.59208C13.5735 7.49881 13.4205 7.50021 13.327 7.59528Z" fill="currentColor"/>
<path d="M5.42529 13.8275L5.41069 13.8327C5.24217 13.8942 5.08801 13.9317 4.95394 13.9446C4.82127 13.9574 4.7242 14.0754 4.73697 14.2081C4.74982 14.3409 4.86789 14.438 5.00056 14.4252C5.18694 14.4068 5.37826 14.3583 5.5756 14.2868L5.59234 14.2805C5.71738 14.2345 5.78144 14.0956 5.73532 13.9706C5.68919 13.8453 5.55034 13.7815 5.42529 13.8275Z" fill="currentColor"/>
<path d="M8.93829 13.6434C8.87556 13.6941 8.81119 13.7426 8.74513 13.7888C8.57467 13.9084 8.40443 14.0129 8.2367 14.1046C8.13548 14.1597 8.09826 14.2864 8.1535 14.3875C8.20865 14.4884 8.3353 14.5256 8.43645 14.4706C8.61725 14.3717 8.80078 14.2592 8.98442 14.1303C9.05849 14.0784 9.13013 14.0243 9.19978 13.9682C9.28946 13.8962 9.30363 13.7651 9.23139 13.6752C9.15931 13.5855 9.02798 13.5713 8.93829 13.6434Z" fill="currentColor"/>
<path d="M7.2651 14.5182C6.95194 14.6173 6.67021 14.6765 6.4414 14.7134C6.32779 14.7321 6.25046 14.8391 6.26881 14.9526C6.28735 15.0665 6.39426 15.1435 6.50809 15.1253C6.75285 15.0856 7.05491 15.0221 7.3911 14.9155C7.50086 14.8806 7.56165 14.7637 7.52681 14.6538C7.49203 14.5442 7.37486 14.4834 7.2651 14.5182Z" fill="currentColor"/>
<path d="M10.4488 12.1273C10.3512 12.0661 10.2226 12.0957 10.1614 12.1932C10.0165 12.4245 9.8541 12.6633 9.67126 12.8933C9.59962 12.9831 9.6146 13.1145 9.70478 13.1862C9.79488 13.2577 9.9261 13.2429 9.99769 13.1526C10.193 12.9069 10.3639 12.6554 10.5148 12.4148C10.5758 12.3173 10.5463 12.1886 10.4488 12.1273Z" fill="currentColor"/>
<path d="M11.3466 10.5328C11.166 10.6567 11.0146 10.7825 10.9072 10.9346C10.844 11.0245 10.78 11.1307 10.7103 11.2509C10.6525 11.3505 10.6865 11.478 10.7861 11.5355C10.8858 11.5933 11.0133 11.5594 11.0711 11.4599C11.1379 11.3442 11.1978 11.2459 11.2486 11.1739C11.307 11.0892 11.4222 10.9854 11.5815 10.8776C11.6766 10.8125 11.7012 10.683 11.6365 10.5879C11.5716 10.4927 11.4419 10.4682 11.3466 10.5328Z" fill="currentColor"/>
<path d="M14.5781 8.44737V8.44718C14.4319 8.65575 14.2479 8.85093 14.0148 9.01429L14.0136 9.0153C13.9196 9.08139 13.8964 9.2113 13.9625 9.30552C14.0288 9.39978 14.1587 9.42269 14.2532 9.35682L14.2544 9.35559C14.5313 9.16164 14.7494 8.92955 14.9196 8.68632C14.9855 8.59207 14.9628 8.46216 14.8683 8.39588C14.7741 8.33001 14.6439 8.35292 14.5781 8.44737Z" fill="currentColor"/>
<path d="M15.3342 6.49751C15.2189 6.49814 15.1262 6.59196 15.1268 6.70688C15.127 6.71722 15.1252 7.0717 15.0026 7.51866C14.9722 7.62951 15.0376 7.74425 15.1487 7.77466C15.2596 7.80503 15.3741 7.73957 15.4047 7.62869C15.5456 7.11348 15.5435 6.71722 15.5437 6.70467C15.5431 6.58955 15.4493 6.49691 15.3342 6.49751Z" fill="currentColor"/>
<path d="M13.0979 9.57653C12.8344 9.72126 12.5725 9.85541 12.3254 9.9825C12.2231 10.0354 12.1829 10.1611 12.2356 10.2636C12.2883 10.3658 12.4142 10.4061 12.5166 10.3532C12.763 10.2264 13.0282 10.0906 13.2985 9.94198C13.3995 9.88647 13.4364 9.75976 13.3808 9.65883C13.3255 9.55788 13.1988 9.52099 13.0979 9.57653Z" fill="currentColor"/>
<path d="M12.2476 5.82237C12.153 5.72871 11.9999 5.72973 11.9063 5.82458C11.6288 6.10532 11.398 6.41422 11.1986 6.72616C11.1269 6.83865 11.1598 6.98803 11.2721 7.05956C11.3845 7.13131 11.5338 7.09847 11.6056 6.9862C11.7916 6.69493 12.0027 6.41403 12.2497 6.16389C12.3434 6.06904 12.3424 5.91621 12.2476 5.82237Z" fill="currentColor"/>
<path d="M13.2459 5.45916C13.3201 5.42553 13.3969 5.39389 13.4759 5.36513C13.6729 5.29376 13.8857 5.23803 14.1176 5.20177C14.2492 5.18129 14.3394 5.05764 14.3187 4.92593C14.298 4.79419 14.1744 4.70417 14.0426 4.72484C13.781 4.766 13.5377 4.82943 13.3113 4.91152C13.2203 4.94455 13.132 4.98084 13.0464 5.01955C12.925 5.0749 12.8713 5.21799 12.9264 5.33942C12.9816 5.46055 13.1247 5.51409 13.2459 5.45916Z" fill="currentColor"/>
<path d="M10.4324 9.11423C10.6282 8.84689 10.7961 8.5011 10.9865 8.11943C11.0459 8.00005 10.9973 7.85532 10.8779 7.79596C10.7585 7.73637 10.6137 7.78521 10.5541 7.90459C10.3649 8.28648 10.199 8.61848 10.0435 8.82824C9.96457 8.93545 9.98756 9.08647 10.0949 9.16571C10.2023 9.24455 10.3533 9.22182 10.4324 9.11423Z" fill="currentColor"/>
<path d="M5.33402 12.4948C5.4231 12.3955 5.41501 12.2429 5.31589 12.1539C5.2168 12.0647 5.06405 12.0726 4.97497 12.1717C4.68362 12.4968 4.45519 12.826 4.33173 13.1653C4.28656 13.2905 4.35158 13.429 4.47696 13.4744C4.60224 13.5194 4.74066 13.4547 4.78597 13.3292C4.87535 13.079 5.06758 12.7901 5.33402 12.4948Z" fill="currentColor"/>
<path d="M8.25382 10.3159C8.60295 10.1185 8.93181 9.94846 9.21214 9.81671C9.33273 9.76017 9.38462 9.61648 9.32797 9.49564C9.27123 9.37506 9.12751 9.32316 9.00682 9.37973C8.71333 9.51776 8.37515 9.69268 8.0161 9.89598C7.90005 9.96166 7.8592 10.1088 7.92499 10.2249C7.99064 10.3409 8.13789 10.3818 8.25382 10.3159Z" fill="currentColor"/>
<path d="M7.14697 10.998C7.25774 10.9238 7.28744 10.7738 7.21315 10.6629C7.13907 10.5523 6.98906 10.5227 6.87821 10.5967C6.5683 10.8046 6.26216 11.025 5.9739 11.2532C5.86931 11.3361 5.8517 11.4879 5.93458 11.5925C6.01727 11.6967 6.16919 11.7145 6.2737 11.6316C6.54995 11.4129 6.84619 11.1994 7.14697 10.998Z" fill="currentColor"/>
</g>
<defs>
<clipPath id="clip0_238_946">
<rect width="14" height="14" fill="white" transform="translate(3 3)"/>
</clipPath>
</defs>
</svg>
