<svg width="24" height="24" viewBox="0 0 20 20" fill="none" xmlns="http://www.w3.org/2000/svg">
<rect x="0.5" y="0.5" width="19" height="19" rx="9.5" fill="white" stroke="currentColor"/>
<path d="M8.5 11C8.5 10.7238 8.27614 10.5 8 10.5C7.72385 10.5 7.5 10.7238 7.5 11C7.5 11.6787 7.63361 12.3687 8.04119 12.8986C8.46719 13.4524 9.12855 13.75 10 13.75C10.2762 13.75 10.5 13.5261 10.5 13.25C10.5 12.9738 10.2762 12.75 10 12.75C9.37145 12.75 9.0328 12.5476 8.83381 12.2889C8.61638 12.0063 8.5 11.5713 8.5 11Z" fill="currentColor"/>
<path fill-rule="evenodd" clip-rule="evenodd" d="M10.7116 4.77133C10.3258 4.35599 9.67415 4.35601 9.28845 4.77136C8.81659 5.27948 7.94573 6.26525 7.18973 7.3894C6.43538 8.51111 5.73492 9.78865 5.74723 11.1763C5.74832 11.299 5.75485 11.4713 5.77624 11.6768C5.81874 12.085 5.92138 12.639 6.16696 13.2004C6.41362 13.7643 6.80949 14.3462 7.44102 14.7854C8.07541 15.2268 8.91291 15.5 10 15.5C11.0871 15.5 11.9246 15.2268 12.5591 14.7854C13.1905 14.3462 13.5865 13.7643 13.8332 13.2004C14.0788 12.639 14.1815 12.085 14.224 11.6768C14.2454 11.4713 14.252 11.2991 14.2531 11.1763C14.2655 9.7887 13.5648 8.51104 12.8105 7.38937C12.0543 6.26521 11.1835 5.27944 10.7116 4.77133ZM8.01954 7.94745C8.72304 6.90137 9.54 5.97151 10 5.47471C10.4601 5.9715 11.2771 6.90136 11.9807 7.94745C12.6177 8.89466 13.2636 9.99025 13.2531 11.1674C13.2522 11.2634 13.2471 11.4037 13.2294 11.5732C13.1938 11.915 13.1089 12.361 12.917 12.7996C12.7262 13.2357 12.4346 13.6539 11.988 13.9646C11.5443 14.2732 10.913 14.5 10 14.5C9.08705 14.5 8.4558 14.2732 8.01209 13.9646C7.56551 13.6539 7.27392 13.2357 7.08313 12.7996C6.89126 12.361 6.80645 11.915 6.77086 11.5732C6.75322 11.4037 6.74804 11.2634 6.74719 11.1674C6.73675 9.9903 7.3825 8.89472 8.01954 7.94745Z" fill="currentColor"/>
</svg>
