<svg viewBox="0 0 24 24" fill="none" xmlns="http://www.w3.org/2000/svg">
<path d="M21 5L3 5" stroke="currentColor" stroke-width="2" stroke-linecap="round"/>
<path d="M21 12.2002L3 12.2002" stroke="currentColor" stroke-width="2" stroke-linecap="round"/>
<path d="M21 19.3999L3 19.3999" stroke="currentColor" stroke-width="2" stroke-linecap="round"/>
<path d="M7.7998 7.99999C6.14296 7.99999 4.79981 6.65684 4.79981 5C4.79981 3.34315 6.14296 2 7.7998 2C9.45664 2 10.7998 3.34315 10.7998 5C10.7998 6.65684 9.45664 7.99999 7.7998 7.99999Z" fill="currentColor"/>
<path d="M16.2002 15.1997C14.5434 15.1997 13.2002 13.8565 13.2002 12.1997C13.2002 10.5429 14.5434 9.19971 16.2002 9.19971C17.857 9.19971 19.2002 10.5429 19.2002 12.1997C19.2002 13.8565 17.857 15.1997 16.2002 15.1997Z" fill="currentColor"/>
<path d="M7.7998 22.3999C6.14296 22.3999 4.79981 21.0567 4.79981 19.3999C4.79981 17.7431 6.14296 16.3999 7.7998 16.3999C9.45664 16.3999 10.7998 17.7431 10.7998 19.3999C10.7998 21.0567 9.45664 22.3999 7.7998 22.3999Z" fill="currentColor"/>
</svg>
