<svg viewBox="0 0 12 12" fill="none" xmlns="http://www.w3.org/2000/svg">
<path d="M5.90625 0.5C5.97547 0.500056 6.04039 0.529677 6.08496 0.580078L6.12207 0.637695L7.55078 3.68164L7.66406 3.92285L7.92773 3.96387L11.1094 4.44922C11.1753 4.45931 11.2336 4.49684 11.2705 4.55078L11.2998 4.61035C11.3277 4.69471 11.3065 4.78719 11.2441 4.85156L8.9209 7.23438L8.74512 7.41504L8.78516 7.66406L9.33594 11.0352C9.35021 11.125 9.31197 11.2158 9.2373 11.2686C9.19673 11.2972 9.14868 11.3114 9.10059 11.3115C9.06069 11.3115 9.0205 11.3021 8.98438 11.2822L6.14844 9.71387L5.90625 9.58008L5.66406 9.71387L2.82812 11.2812C2.74702 11.3259 2.64847 11.3204 2.5752 11.2686C2.50007 11.2154 2.46236 11.1244 2.47656 11.0352L3.02734 7.66406L3.06738 7.41504L2.8916 7.23438L0.568359 4.85156C0.505463 4.78698 0.484433 4.69374 0.512695 4.60938C0.534105 4.54583 0.580575 4.49566 0.639648 4.46875L0.702148 4.4502L3.88379 3.96387L4.14746 3.92285L4.26074 3.68164L5.69043 0.637695C5.72992 0.553616 5.81377 0.5 5.90625 0.5Z" stroke="#3A8756"/>
</svg>
