<svg width="24" height="24" viewBox="0 0 20 20" fill="none" xmlns="http://www.w3.org/2000/svg">
<rect x="0.5" y="0.5" width="19" height="19" rx="9.5" fill="white" stroke="currentColor"/>
<g clip-path="url(#clip0_12_638)">
<path d="M10.748 9.91657L9.99991 9.36778L9.25201 8.81897C8.96988 8.61187 8.45026 8.4011 7.89617 8.62557C7.42334 8.82006 7.04422 9.04707 6.73647 9.29089L8.25979 10.409C8.39511 10.5081 8.42434 10.6982 8.32497 10.8336C8.22563 10.9689 8.03551 10.9981 7.90016 10.8988L6.28316 9.71223C5.59207 10.4705 5.41568 11.2987 5.20073 11.7981C5.11233 12.0035 5.00897 12.3029 4.90214 12.6422L5.83062 13.3236C5.96597 13.4229 5.99518 13.6132 5.89584 13.7486C5.79666 13.8837 5.60638 13.9129 5.47102 13.8137L4.7162 13.2598C4.48665 14.0532 4.27003 14.9005 4.17745 15.2998C3.9625 16.2246 4.2819 16.5753 4.56042 16.7797C4.83914 16.9842 5.26904 17.1836 6.08702 16.7013C6.69974 16.3399 8.49043 15.2178 9.1207 14.675C9.17402 14.629 9.2332 14.5819 9.2962 14.5331L7.7484 13.3973C7.61324 13.298 7.58404 13.1076 7.68322 12.9723C7.78256 12.8372 7.97268 12.808 8.10803 12.9071L9.79533 14.1455C10.4433 13.6139 11.1977 12.7955 11.3387 11.152C11.3868 10.5561 11.0299 10.1237 10.748 9.91657Z" fill="currentColor"/>
<path d="M15.3378 6.62849C14.2592 6.6263 12.1671 8.15493 11.483 8.61788C10.8827 9.16542 10.7265 8.80544 11.039 8.48603C11.4709 8.04462 11.8515 7.47699 13.5862 6.56221C14.4564 6.10343 14.7433 5.89431 14.4692 5.60485C14.1949 5.31539 13.4411 5.67955 13.638 5.43608C13.8347 5.19229 14.1306 4.29793 13.8493 4.09137C13.5682 3.88501 12.8038 4.43544 12.6305 4.69641C12.457 4.95738 12.5782 4.129 12.2199 3.95422C11.8618 3.77924 11.7482 4.11601 11.5712 5.0836C11.2189 7.01253 10.7916 7.54601 10.5001 8.09061C10.2892 8.48436 9.8989 8.44308 10.2411 7.70635C10.4779 6.915 11.3084 4.46101 10.9828 3.43242C10.6574 2.40402 9.69782 3.45451 9.92409 4.05902C9.23522 3.40414 9.00381 4.50465 9.58787 5.67422C9.72959 5.95821 10.0073 7.1411 9.32195 8.44343L10.1889 9.0795L11.0558 9.71579C12.0924 8.67131 13.3044 8.58146 13.6176 8.6315C14.9083 8.8377 15.889 8.28744 15.0576 7.82647C15.7021 7.86087 16.4164 6.63068 15.3378 6.62849Z" fill="currentColor"/>
</g>
<defs>
<clipPath id="clip0_12_638">
<rect width="14" height="14" fill="white" transform="translate(3 3)"/>
</clipPath>
</defs>
</svg>
