<svg viewBox="0 0 24 24" fill="none" xmlns="http://www.w3.org/2000/svg">
<path fill-rule="evenodd" clip-rule="evenodd" d="M11.0605 12.4775C11.066 14.6763 11.0726 18.4121 11.0781 21.3156C15.0535 21.8532 19.029 22.4074 22.9978 23C22.9978 19.5336 23.0022 16.0824 22.9978 12.7842C19.019 12.7842 15.0414 12.4775 11.0605 12.4775ZM1 12.4786V19.9438C3.9984 20.3484 6.99679 20.7351 9.98967 21.1771C9.99519 18.2889 9.98747 15.4 9.98747 12.5119C6.99128 12.5174 3.99619 12.4687 1 12.4786ZM1 4.12759V11.5719C3.9984 11.5796 6.99679 11.5342 9.99519 11.5375C9.99298 8.65603 9.99298 5.77805 9.98967 2.89653C6.98907 3.27142 3.98847 3.66804 1 4.12759ZM23 11.4188C19.0268 11.4342 15.0535 11.4948 11.0781 11.5069C11.0759 8.57814 11.0759 5.65285 11.0781 2.72627C15.0458 2.1205 19.0224 1.55079 22.9978 1C23 4.47409 22.9978 7.94476 23 11.4188Z" fill="currentColor"/>
</svg>
